<svg width="23" height="18" viewBox="0 0 23 18" fill="none" xmlns="http://www.w3.org/2000/svg">
<g filter="url(#filter0_d_2_459)">
<path d="M13.6025 4.44092V9.94434C13.6025 10.2819 13.6496 10.5365 13.7437 10.708C13.8433 10.8796 13.9595 11.0068 14.0923 11.0898C14.2251 11.1673 14.3939 11.2061 14.5986 11.2061C15.0081 11.2061 15.3485 11.0954 15.6196 10.874C15.8908 10.6471 16.1066 10.376 16.2671 10.0605C16.4276 9.74512 16.5382 9.42139 16.5991 9.08936C16.6655 8.75179 16.6987 8.33398 16.6987 7.83594C16.6987 7.27148 16.6185 6.7264 16.458 6.20068C16.2975 5.66943 16.0706 5.17139 15.7773 4.70654C15.4896 4.23617 15.141 3.80729 14.7314 3.41992C14.3219 3.02702 13.8654 2.69222 13.3618 2.41553C12.8582 2.1333 12.3159 1.91471 11.7349 1.75977C11.1538 1.60482 10.5479 1.52734 9.91699 1.52734C9.29167 1.52734 8.68848 1.60758 8.10742 1.76807C7.5319 1.92855 6.99235 2.15544 6.48877 2.44873C5.99072 2.74202 5.53418 3.09342 5.11914 3.50293C4.70964 3.91243 4.35824 4.36898 4.06494 4.87256C3.77718 5.37061 3.55306 5.90739 3.39258 6.48291C3.2321 7.05843 3.15186 7.65609 3.15186 8.27588C3.15186 8.9012 3.2321 9.50439 3.39258 10.0854C3.55306 10.661 3.77718 11.2005 4.06494 11.7041C4.35824 12.2077 4.70964 12.6642 5.11914 13.0737C5.53418 13.4832 5.99072 13.8346 6.48877 14.1279C6.99235 14.4212 7.5319 14.6481 8.10742 14.8086C8.68848 14.9691 9.29167 15.0493 9.91699 15.0493C10.5534 15.0493 11.1676 14.9635 11.7598 14.792C12.3519 14.626 12.9053 14.388 13.4199 14.0781L14.2002 15.3813C13.5749 15.7632 12.8997 16.0565 12.1748 16.2612C11.4554 16.4715 10.7028 16.5767 9.91699 16.5767C9.15332 16.5767 8.41732 16.4771 7.70898 16.2778C7.00065 16.0841 6.33936 15.8075 5.7251 15.4478C5.11084 15.0881 4.54915 14.6536 4.04004 14.1445C3.53646 13.641 3.10482 13.082 2.74512 12.4678C2.38542 11.8535 2.10596 11.1922 1.90674 10.4839C1.71305 9.77555 1.61621 9.03955 1.61621 8.27588C1.61621 7.51774 1.71305 6.78727 1.90674 6.08447C2.10596 5.37614 2.38542 4.71484 2.74512 4.10059C3.10482 3.48633 3.53646 2.92741 4.04004 2.42383C4.54915 1.92025 5.11084 1.48861 5.7251 1.12891C6.33936 0.769206 7.00065 0.492513 7.70898 0.298828C8.41732 0.0996094 9.15332 0 9.91699 0C10.6917 0 11.4333 0.0968424 12.1416 0.290527C12.8555 0.478678 13.5195 0.744303 14.1338 1.0874C14.748 1.4305 15.307 1.84277 15.8105 2.32422C16.3141 2.80566 16.743 3.33691 17.0972 3.91797C17.4569 4.49902 17.7336 5.12158 17.9272 5.78564C18.1265 6.44417 18.2261 7.1276 18.2261 7.83594C18.2261 8.21224 18.1901 8.59131 18.1182 8.97314C18.0462 9.35498 17.9383 9.72021 17.7944 10.0688C17.6506 10.4175 17.4735 10.744 17.2632 11.0483C17.0584 11.3527 16.8177 11.6183 16.541 11.8452C16.2699 12.0666 15.9683 12.2437 15.6362 12.3765C15.3042 12.5037 14.9445 12.5674 14.5571 12.5674C14.048 12.5674 13.6219 12.4567 13.2788 12.2354C12.9357 12.014 12.6673 11.729 12.4736 11.3804C12.125 11.6681 11.7321 11.8923 11.2949 12.0527C10.8577 12.2132 10.3874 12.2935 9.88379 12.2935C9.30273 12.2935 8.76872 12.1938 8.28174 11.9946C7.80029 11.7899 7.38249 11.5104 7.02832 11.1562C6.67415 10.8021 6.39746 10.3898 6.19824 9.91943C6.00456 9.44906 5.90771 8.94271 5.90771 8.40039C5.90771 7.86361 6.01009 7.36003 6.21484 6.88965C6.4196 6.41374 6.69906 5.9987 7.05322 5.64453C7.41292 5.29036 7.8335 5.0109 8.31494 4.80615C8.80192 4.59587 9.32487 4.49072 9.88379 4.49072C10.2878 4.49072 10.6751 4.54606 11.0459 4.65674C11.4167 4.76742 11.7598 4.92513 12.0752 5.12988V4.44092H13.6025ZM9.88379 10.7578C10.404 10.7578 10.8522 10.6388 11.2285 10.4009C11.6048 10.1574 11.887 9.84473 12.0752 9.46289V7.36279C11.9811 7.16911 11.8594 6.98926 11.71 6.82324C11.5661 6.65723 11.4001 6.51611 11.2119 6.3999C11.0238 6.27816 10.8162 6.18408 10.5894 6.11768C10.368 6.05127 10.1328 6.01807 9.88379 6.01807C9.52962 6.01807 9.20312 6.08171 8.9043 6.20898C8.60547 6.33626 8.34538 6.50781 8.12402 6.72363C7.9082 6.93945 7.73942 7.19401 7.61768 7.4873C7.49593 7.77507 7.43506 8.07943 7.43506 8.40039C7.43506 8.72689 7.49316 9.03402 7.60938 9.32178C7.72559 9.604 7.88883 9.85303 8.09912 10.0688C8.31494 10.2791 8.57227 10.4479 8.87109 10.5752C9.17546 10.6969 9.51302 10.7578 9.88379 10.7578Z" fill="black"/>
</g>
<defs>
<filter id="filter0_d_2_459" x="-2.38379" y="0" width="24.6099" height="24.5767" filterUnits="userSpaceOnUse" color-interpolation-filters="sRGB">
<feFlood flood-opacity="0" result="BackgroundImageFix"/>
<feColorMatrix in="SourceAlpha" type="matrix" values="0 0 0 0 0 0 0 0 0 0 0 0 0 0 0 0 0 0 127 0" result="hardAlpha"/>
<feOffset dy="4"/>
<feGaussianBlur stdDeviation="2"/>
<feComposite in2="hardAlpha" operator="out"/>
<feColorMatrix type="matrix" values="0 0 0 0 0 0 0 0 0 0 0 0 0 0 0 0 0 0 0.25 0"/>
<feBlend mode="normal" in2="BackgroundImageFix" result="effect1_dropShadow_2_459"/>
<feBlend mode="normal" in="SourceGraphic" in2="effect1_dropShadow_2_459" result="shape"/>
</filter>
</defs>
</svg>
