<svg width="422" height="184" viewBox="0 0 422 184" fill="none" xmlns="http://www.w3.org/2000/svg">
<path fill-rule="evenodd" clip-rule="evenodd" d="M28.1869 70.4428C2.69806 90.5593 -10.4578 120.154 20.6627 142.32C47.5196 161.455 93.6639 167.686 131.165 171.003C168.813 174.337 206.653 173.682 243.884 170.874C306.851 166.132 423.156 151.498 418.324 98.6276C415.554 68.3265 375.024 38.2442 334.216 23.6155C285.046 5.98905 227.267 7.95185 175.65 15.4549C123.247 23.069 73.544 38.2495 41.2527 65.5542C15.1234 87.6494 -5.05198 123.815 28.7598 148.547C58.6316 170.398 114.318 172.071 154.873 169.717C204.006 166.864 252.963 162.302 299.549 152.671C342.286 143.831 387.427 129.495 408.096 103.184C422.778 84.4849 420.751 63.8397 393.357 49.398C365.288 34.5959 324.658 29.952 290.129 27.0062C252.167 23.7684 215.117 23.7779 177.636 26.737C168.682 27.4467 159.719 28.148 150.757 28.8124C146.759 29.1112 148.346 32.9833 152.306 32.6856C177.264 30.8289 201.959 28.2238 227.259 28.2796C245.028 28.3223 262.848 29.0125 280.598 30.2286C317.454 32.758 359.736 37.4104 390.085 52.6747C426.547 71.0206 409.216 101.198 383.287 118.33C347.891 141.722 292.238 151.472 242.862 157.931C196.02 164.058 143.76 169.721 95.3458 164.805C71.8875 162.423 47.7569 156.527 31.6765 144.764C13.1012 131.178 15.4827 112.522 22.8319 97.1289C40.8621 59.4006 93.3049 35.715 150.516 23.9606C205.56 12.6583 269.79 7.88823 325.174 24.9748C352.773 33.4853 374.83 47.5661 391.222 63.7851C404.268 76.7009 414.104 91.505 411.828 106.69C407.938 132.642 364.799 146.697 330.507 154.587C290.443 163.799 246.469 167.787 203.489 169.069C163.386 170.265 121.91 168.012 82.8626 160.438C61.0802 156.208 39.1861 149.684 23.6897 138.647C6.33153 126.279 5.51935 109.571 13.2137 95.1461C23.4995 75.8705 48.4436 60.4101 73.6415 48.6701C98.5834 37.0467 129.655 27.5614 161.707 26.8135C165.703 26.7209 165.86 22.7764 161.826 22.8701C109.229 24.0953 59.4866 45.7373 28.1869 70.4428Z" fill="#1BACB0"/>
</svg>
