<svg width="336" height="107" viewBox="0 0 336 107" fill="none" xmlns="http://www.w3.org/2000/svg">
<path fill-rule="evenodd" clip-rule="evenodd" d="M132.945 -3.87071C91.9442 -7.76589 52.0742 -0.180242 26.3943 10.6931C5.48199 19.5464 -6.33838 34.6859 16.6975 49.5845C36.5771 62.4453 72.1571 69.8821 101.166 74.9649C130.288 80.0694 159.773 82.9966 188.9 84.6861C238.158 87.5474 329.458 89.5995 328.522 60.0918C327.985 43.1802 298.049 23.1087 267.072 11.5153C229.745 -2.45391 184.673 -6.39336 144.1 -6.74946C102.909 -7.11273 63.4149 -3.07861 36.8243 9.13856C15.3078 19.0249 -2.32679 37.1699 22.6665 53.7137C44.7474 68.3306 87.9974 74.089 119.686 76.3171C158.077 79.0152 196.423 80.7587 233.195 79.5068C266.928 78.356 302.827 74.3903 320.319 61.7099C332.745 52.6978 332.27 41.1631 311.722 30.8379C290.667 20.2557 259.294 14.1712 232.579 9.55083C203.207 4.47164 174.371 1.25817 145.043 -0.369769C138.035 -0.757269 131.022 -1.15003 124.012 -1.56303C120.885 -1.74597 121.913 0.52225 125.011 0.702508C144.534 1.84917 163.893 2.56116 183.58 4.78975C197.407 6.35686 211.239 8.28464 224.988 10.4957C253.537 15.089 286.196 21.3219 309 32.3564C336.397 45.6174 321.297 60.7148 300.201 67.8877C271.403 77.6827 227.569 78.2118 188.795 77.476C152.012 76.778 111.037 75.3537 73.6199 68.4433C55.4902 65.0946 37.025 59.7549 25.1387 51.8858C11.408 42.7975 14.2583 32.7404 20.8006 24.9099C36.8492 5.71908 78.9297 -2.75637 124.084 -4.25323C167.527 -5.68978 217.77 -2.73435 259.962 11.4777C280.987 18.5575 297.401 28.2206 309.291 38.5678C318.754 46.8071 325.619 55.8065 323.035 63.9633C318.621 77.9035 284.297 81.8884 257.186 83.2503C225.513 84.8382 191.076 83.2119 157.557 80.1839C126.282 77.3576 94.1227 72.515 64.138 64.9561C47.4113 60.7367 30.7203 55.2452 19.2496 47.8269C6.40105 39.5144 6.66182 30.2511 13.421 22.9835C22.4561 13.272 42.6957 6.93305 62.9339 2.66298C82.9667 -1.56518 107.655 -4.0845 132.641 -1.71151C135.756 -1.4153 136.089 -3.57183 132.945 -3.87071Z" fill="#1BACB0"/>
</svg>
