<svg width="9" height="18" viewBox="0 0 9 18" fill="none" xmlns="http://www.w3.org/2000/svg">
<path d="M2.5058 9.65219C2.44316 9.65219 1.06497 9.65219 0.438515 9.65219C0.104408 9.65219 0 9.52378 0 9.20275C0 8.34668 0 7.46921 0 6.61314C0 6.27071 0.12529 6.1637 0.438515 6.1637H2.5058C2.5058 6.0995 2.5058 4.8582 2.5058 4.28035C2.5058 3.42428 2.65197 2.61101 3.06961 1.86195C3.50812 1.09149 4.13457 0.577847 4.92807 0.278223C5.45012 0.085607 5.97216 0 6.53596 0H8.58237C8.87471 0 9 0.128411 9 0.428035V2.86783C9 3.16746 8.87471 3.29587 8.58237 3.29587C8.01856 3.29587 7.45476 3.29587 6.89095 3.31727C6.32715 3.31727 6.0348 3.59549 6.0348 4.19474C6.01392 4.8368 6.0348 5.45745 6.0348 6.1209H8.45708C8.79118 6.1209 8.91647 6.24931 8.91647 6.59174V9.18135C8.91647 9.52378 8.81207 9.63079 8.45708 9.63079C7.70534 9.63079 6.09745 9.63079 6.0348 9.63079V16.6078C6.0348 16.9716 5.93039 17.1 5.55452 17.1C4.67749 17.1 3.82135 17.1 2.94432 17.1C2.63109 17.1 2.5058 16.9716 2.5058 16.6506C2.5058 14.4034 2.5058 9.7164 2.5058 9.65219Z" fill="black"/>
</svg>
