<svg width="26" height="16" viewBox="0 0 26 16" fill="none" xmlns="http://www.w3.org/2000/svg">
<path d="M26 6.19055H23.5238V3.71436H21.0476V6.19055H18.5714V8.66674H21.0476V11.1429H23.5238V8.66674H26V6.19055Z" fill="black"/>
<path d="M7.89286 9.20833H13.0232C12.497 11.4446 10.3923 13.1548 7.89286 13.1548C4.99881 13.1548 2.63095 10.7869 2.63095 7.89286C2.63095 4.99881 4.99881 2.63095 7.89286 2.63095C9.33988 2.63095 10.6554 3.15714 11.5762 4.20952L13.4179 2.36786C11.9708 0.920833 9.99762 0 7.89286 0C3.55179 0 0 3.55179 0 7.89286C0 12.2339 3.55179 15.7857 7.89286 15.7857C12.2339 15.7857 15.7857 12.2339 15.7857 7.89286V6.57738H7.89286V9.20833Z" fill="black"/>
</svg>
