<svg width="18" height="18" viewBox="0 0 18 18" fill="none" xmlns="http://www.w3.org/2000/svg">
<path d="M18 17.9998V11.4434C18 8.22119 17.3093 5.75977 13.5658 5.75977C11.7609 5.75977 10.5577 6.74434 10.0675 7.68415H10.0229V6.05066H6.48001V17.9998H10.1789V12.07C10.1789 10.5036 10.4686 9.00437 12.3848 9.00437C14.2789 9.00437 14.3011 10.7721 14.3011 12.1595V17.9774H18V17.9998Z" fill="black"/>
<path d="M0.720001 5.75977H4.32V17.9998H0.720001V5.75977Z" fill="black"/>
<path d="M2.16 0C0.9675 0 0 0.962487 0 2.14881C0 3.33513 0.9675 4.32 2.16 4.32C3.3525 4.32 4.32 3.33513 4.32 2.14881C4.32 0.962487 3.3525 0 2.16 0Z" fill="black"/>
</svg>
