<svg width="19" height="16" viewBox="0 0 19 16" fill="none" xmlns="http://www.w3.org/2000/svg">
<path d="M19 1.79785C18.2875 2.10138 17.5513 2.31152 16.7675 2.40492C17.575 1.93794 18.1925 1.19078 18.4775 0.280184C17.7175 0.723809 16.8862 1.02734 16.0075 1.21413C15.295 0.466974 14.2738 0 13.1575 0C10.9963 0 9.2625 1.7278 9.2625 3.82919C9.2625 4.13272 9.28625 4.4129 9.3575 4.69309C6.1275 4.553 3.2775 3.01198 1.35375 0.700461C-0.0237501 3.12873 1.52 5.13671 2.54125 5.81382C1.92375 5.81382 1.30625 5.62704 0.78375 5.34685C0.78375 7.2381 2.1375 8.80246 3.895 9.15269C3.515 9.26943 2.66 9.33948 2.1375 9.22273C2.63625 10.7404 4.085 11.8611 5.77125 11.8845C4.44125 12.9118 2.49375 13.729 0 13.4722C1.73375 14.5696 3.77625 15.2 5.985 15.2C13.1575 15.2 17.0525 9.36283 17.0525 4.31951C17.0525 4.15607 17.0525 3.99263 17.0287 3.82919C17.8363 3.24547 18.5012 2.56836 19 1.79785Z" fill="black"/>
<path d="M19 1.79785C18.2875 2.10138 17.5513 2.31152 16.7675 2.40492C17.575 1.93794 18.1925 1.19078 18.4775 0.280184C17.7175 0.723809 16.8862 1.02734 16.0075 1.21413C15.295 0.466974 14.2738 0 13.1575 0C10.9963 0 9.2625 1.7278 9.2625 3.82919C9.2625 4.13272 9.28625 4.4129 9.3575 4.69309C6.1275 4.553 3.2775 3.01198 1.35375 0.700461C-0.0237501 3.12873 1.52 5.13671 2.54125 5.81382C1.92375 5.81382 1.30625 5.62704 0.78375 5.34685C0.78375 7.2381 2.1375 8.80246 3.895 9.15269C3.515 9.26943 2.66 9.33948 2.1375 9.22273C2.63625 10.7404 4.085 11.8611 5.77125 11.8845C4.44125 12.9118 2.49375 13.729 0 13.4722C1.73375 14.5696 3.77625 15.2 5.985 15.2C13.1575 15.2 17.0525 9.36283 17.0525 4.31951C17.0525 4.15607 17.0525 3.99263 17.0287 3.82919C17.8363 3.24547 18.5012 2.56836 19 1.79785Z" fill="black"/>
</svg>
